<svg xmlns="http://www.w3.org/2000/svg" viewBox="0 0 160 160" role="img" aria-label="Mutfak ve Saklama">
  <defs>
    <linearGradient id="ceramic" x1="0" y1="0" x2="1" y2="1">
      <stop stop-color="#fffdfb"/><stop offset="1" stop-color="#efd5d1"/>
    </linearGradient>
    <filter id="shadow" x="-25%" y="-25%" width="150%" height="160%">
      <feDropShadow dy="4" stdDeviation="4" flood-color="#243044" flood-opacity=".16"/>
    </filter>
  </defs>
  <g filter="url(#shadow)" stroke="#243044" stroke-linecap="round" stroke-linejoin="round">
    <path d="M29 62h59v60c0 10-8 18-18 18H47c-10 0-18-8-18-18V62Z" fill="url(#ceramic)" stroke-width="5"/>
    <rect x="24" y="48" width="69" height="17" rx="5" fill="#e4aca8" stroke-width="5"/>
    <path d="M36 45V34h45v11" fill="none" stroke-width="5"/>
    <path d="M55 88h9M45 105h29" fill="none" stroke="#C98484" stroke-width="4"/>
    <path d="M89 82h43v42c0 9-7 16-16 16h-11c-9 0-16-7-16-16V82Z" fill="url(#ceramic)" stroke-width="5"/>
    <rect x="84" y="68" width="53" height="16" rx="5" fill="#e4aca8" stroke-width="5"/>
    <path d="M94 65V55h33v10" fill="none" stroke-width="5"/>
    <path d="M101 106h19" fill="none" stroke="#C98484" stroke-width="4"/>
  </g>
</svg>
