<svg xmlns="http://www.w3.org/2000/svg" viewBox="0 0 160 160" role="img" aria-labelledby="t d"><title id="t">Yapay Çiçek ve Bitki</title><desc id="d">Saksıda dekoratif yapraklar</desc><defs><filter id="s" x="-30%" y="-30%" width="160%" height="170%"><feDropShadow dy="5" stdDeviation="5" flood-color="#243044" flood-opacity=".18"/></filter><linearGradient id="g" x1="0" y1="0" x2="1" y2="1"><stop stop-color="#fff"/><stop offset="1" stop-color="#f5dada"/></linearGradient></defs><g filter="url(#s)" stroke="#243044" stroke-linecap="round" stroke-linejoin="round"><path d="M79 100V35M79 67 48 40M80 77l33-34M79 58l-5-40" fill="none" stroke-width="5"/><path d="M40 32c17-1 28 7 32 22-17 1-28-7-32-22ZM121 32c-17-1-28 7-32 22 17 1 28-7 32-22ZM68 14c13 6 19 17 16 31-14-6-19-17-16-31ZM42 62c16-2 28 5 33 19-16 2-28-5-33-19ZM118 64c-16-2-28 5-33 19 16 2 28-5 33-19Z" fill="#C98484" stroke-width="3"/><path d="M47 94h66l-8 43c-1 7-7 11-14 11H69c-7 0-13-4-14-11l-8-43Z" fill="url(#g)" stroke-width="5"/><path d="M57 116h46" stroke="#C98484" stroke-width="4"/></g></svg>
