<svg xmlns="http://www.w3.org/2000/svg" viewBox="0 0 160 160" role="img" aria-labelledby="t d"><title id="t">Yılbaşı Ürünleri</title><desc id="d">Dekoratif yılbaşı ağacı</desc><defs><filter id="s" x="-30%" y="-30%" width="160%" height="170%"><feDropShadow dy="5" stdDeviation="5" flood-color="#243044" flood-opacity=".18"/></filter><linearGradient id="g" x1="0" y1="0" x2="1" y2="1"><stop stop-color="#fff"/><stop offset="1" stop-color="#f5dada"/></linearGradient></defs><g filter="url(#s)" stroke="#243044" stroke-linecap="round" stroke-linejoin="round"><path d="m80 12 7 14 16 2-12 11 3 16-14-8-14 8 3-16-12-11 16-2 7-14Z" fill="#C98484" stroke-width="3"/><path d="m80 43-27 34h14l-27 36h27l-15 25h56l-15-25h27L93 77h14L80 43Z" fill="url(#g)" stroke-width="5"/><path d="M80 61v67M58 82l43 30M102 82l-43 30" fill="none" stroke="#C98484" stroke-width="4"/><circle cx="65" cy="91" r="5" fill="#C98484" stroke-width="2"/><circle cx="93" cy="101" r="5" fill="#C98484" stroke-width="2"/></g></svg>
